<svg xmlns="http://www.w3.org/2000/svg" viewBox="0 0 64 64">
  <defs>
    <linearGradient id="mark" x1="10" y1="8" x2="54" y2="56" gradientUnits="userSpaceOnUse">
      <stop offset="0" stop-color="#16d8c7"/>
      <stop offset="1" stop-color="#1688ff"/>
    </linearGradient>
  </defs>
  <rect width="64" height="64" rx="14" fill="#03101f"/>
  <path d="M18 33c0-8.4 6.7-15.2 15-15.2 5.4 0 10.4 2.9 13.1 7.5l-6.6 3.8a7.6 7.6 0 0 0-6.5-3.7 7.5 7.5 0 0 0 0 15c2.7 0 5.2-1.4 6.5-3.7l6.6 3.8A15.1 15.1 0 0 1 33 48.1c-8.3 0-15-6.8-15-15.1Z" fill="url(#mark)"/>
  <path d="M24 33h18" fill="none" stroke="#eaf8fa" stroke-width="5" stroke-linecap="round"/>
</svg>
